<?xml version="1.0" encoding="utf-8"?>
<!-- Generator: Adobe Illustrator 27.5.0, SVG Export Plug-In . SVG Version: 6.00 Build 0)  -->
<svg version="1.1" xmlns="http://www.w3.org/2000/svg" xmlns:xlink="http://www.w3.org/1999/xlink" x="0px" y="0px"
	 viewBox="0 0 500 500" style="enable-background:new 0 0 500 500;" xml:space="preserve">
<g id="Background_2">
</g>
<g id="Background_1">
	<g>
		<g>
			<rect id="XMLID_128_" style="fill-rule:evenodd;clip-rule:evenodd;fill:#432959;" width="500.001" height="500"/>
			<g id="XMLID_360_">
				<path id="XMLID_363_" style="fill-rule:evenodd;clip-rule:evenodd;fill:#39224D;" d="M500.001,343.559V500h-56.766
					c-38.521-27.978-103.795-82.512-101.049-129.272C345.325,317.591,456.354,334.731,500.001,343.559L500.001,343.559z"/>
				<path id="XMLID_362_" style="fill-rule:evenodd;clip-rule:evenodd;fill:#4B2F63;" d="M119.931,0h380.07v287.259
					C307.538,274.214,176.548,193.639,119.931,0L119.931,0z"/>
				<path id="XMLID_361_" style="fill-rule:evenodd;clip-rule:evenodd;fill:#4B2F63;" d="M355.573,500H0V221.004
					c20.401,47.643,53.872,97.077,108.626,126.379C199.45,395.935,297.729,437.031,355.573,500L355.573,500z"/>
			</g>
		</g>
		<g>
			<g id="XMLID_195_">
				<g id="XMLID_373_">
					<g id="XMLID_393_">
						<path id="XMLID_397_" style="fill-rule:evenodd;clip-rule:evenodd;fill:#1A4B63;" d="M103.641,445.402l-3.678-2.256
							l4.02-14.442c3.604,2.967,6.179,5.075,6.179,5.075s0.564-0.539,1.496-1.569l1.594,0.883
							C109.992,436.967,106.952,441.356,103.641,445.402L103.641,445.402z M75.835,426.153l-3.679-2.256l8.975-14.933l1.152,1.03
							h-0.023c-0.246,0.073,2.182,2.256,5.688,5.272C84.662,419.092,79.121,422.157,75.835,426.153L75.835,426.153z"/>
						<g id="XMLID_394_">
							<path id="XMLID_396_" style="fill-rule:evenodd;clip-rule:evenodd;fill:#FFD631;" d="M82.48,410.117l-9.294,38.056
								l37.1-15.031C110.286,433.142,82.602,410.314,82.48,410.117L82.48,410.117z"/>
							<path id="XMLID_395_" style="fill-rule:evenodd;clip-rule:evenodd;fill:#FF9500;" d="M104.082,428.018
								c-5.101-4.193-12.211-10.054-16.847-13.928l-4.535,23.589L104.082,428.018z"/>
						</g>
					</g>
					<g id="XMLID_388_">
						<g id="XMLID_390_">
							<path id="XMLID_392_" style="fill-rule:evenodd;clip-rule:evenodd;fill:#E6E6E6;" d="M82.259,409.995
								c0,0,13.412-22.707,30.282-34.379c16.871-11.672,30.063-14.712,30.063-14.712s1.521,18.832-7.773,38.056
								c-9.317,19.249-24.668,34.819-24.668,34.819S81.4,410.215,82.259,409.995L82.259,409.995z"/>
							<path id="XMLID_391_" style="fill-rule:evenodd;clip-rule:evenodd;fill:#CCCCCC;" d="M119.383,371.203
								c13.461-8.043,23.221-10.299,23.221-10.299s1.521,18.832-7.773,38.056c-6.89,14.247-17.066,26.458-21.896,31.853
								L119.383,371.203z"/>
						</g>
						<path id="XMLID_389_" style="fill-rule:evenodd;clip-rule:evenodd;fill:#287DA8;" d="M128.309,366.397
							c8.631-4.192,14.295-5.492,14.295-5.492s0.539,6.62-0.955,15.987L128.309,366.397z"/>
					</g>
					<g id="XMLID_381_">
						<g id="XMLID_385_">
							<path id="XMLID_387_" style="fill-rule:evenodd;clip-rule:evenodd;fill:#FA8068;" d="M119.04,399.721
								c4.758,0,8.656-3.874,8.656-8.632c0-4.781-3.898-8.655-8.656-8.655c-4.781,0-8.656,3.874-8.656,8.655
								C110.383,395.847,114.258,399.721,119.04,399.721L119.04,399.721z"/>
							<path id="XMLID_386_" style="fill-rule:evenodd;clip-rule:evenodd;fill:#E2554C;" d="M119.04,382.434
								c4.781,0,8.656,3.874,8.656,8.655c0,4.758-3.875,8.632-8.656,8.632c-0.956,0-1.863-0.147-2.697-0.417l1.814-16.821
								C118.452,382.434,118.746,382.434,119.04,382.434L119.04,382.434z"/>
						</g>
						<g id="XMLID_382_">
							<path id="XMLID_384_" style="fill-rule:evenodd;clip-rule:evenodd;fill:#475057;" d="M119.04,397.194
								c3.359,0,6.105-2.746,6.105-6.105c0-3.384-2.746-6.13-6.105-6.13c-3.359,0-6.105,2.746-6.105,6.13
								C112.934,394.448,115.68,397.194,119.04,397.194L119.04,397.194z"/>
							<path id="XMLID_383_" style="fill-rule:evenodd;clip-rule:evenodd;fill:#32373B;" d="M119.04,384.959
								c3.359,0,6.105,2.746,6.105,6.13c0,3.359-2.746,6.105-6.105,6.105c-0.857,0-1.691-0.195-2.428-0.515l1.251-11.598
								C118.254,385.008,118.647,384.959,119.04,384.959L119.04,384.959z"/>
						</g>
					</g>
					<g id="XMLID_374_">
						<g id="XMLID_378_">
							<path id="XMLID_380_" style="fill-rule:evenodd;clip-rule:evenodd;fill:#287DA8;" d="M100.649,395.944
								c0,0-6.693-1.741-12.53-0.858c-5.859,0.858-21.308,22.485-21.308,22.485l2.157,1.3c0,0,7.577-1.618,12.873-2.82
								c5.297-1.177,8.313-1.177,8.313-1.177S100.649,396.165,100.649,395.944L100.649,395.944z"/>
							<path id="XMLID_379_" style="fill-rule:evenodd;clip-rule:evenodd;fill:#4CAAD9;" d="M100.649,395.944
								c0,0-6.693-1.741-12.53-0.858c-5.859,0.858-21.308,22.485-21.308,22.485l2.157,1.3l0.295-0.073
								c4.045-5.395,15.104-19.96,18.635-21.456c3.532-1.495,10.323-1.324,12.678-1.226
								C100.625,396.018,100.649,395.944,100.649,395.944L100.649,395.944z"/>
						</g>
						<g id="XMLID_375_">
							<path id="XMLID_377_" style="fill-rule:evenodd;clip-rule:evenodd;fill:#287DA8;" d="M121.321,410.24
								c0,0,3.53,5.835,4.438,11.671c0.907,5.812-14.295,27.145-14.295,27.145l-1.814-1.667c0,0-0.736-7.699-1.178-13.119
								c-0.466-5.395-1.349-8.287-1.349-8.287S121.1,410.289,121.321,410.24L121.321,410.24z"/>
							<path id="XMLID_376_" style="fill-rule:evenodd;clip-rule:evenodd;fill:#4CAAD9;" d="M121.321,410.24
								c0,0,3.53,5.835,4.438,11.671c0.907,5.812-14.295,27.145-14.295,27.145l-1.814-1.667l-0.025-0.295
								c3.752-5.492,13.781-20.475,14.124-24.275c0.343-3.825-1.79-10.249-2.575-12.456
								C121.247,410.265,121.295,410.24,121.321,410.24L121.321,410.24z"/>
						</g>
					</g>
				</g>
				<g id="XMLID_196_">
					<g id="XMLID_221_">
						<g id="XMLID_365_">
							<path id="XMLID_372_" style="fill-rule:evenodd;clip-rule:evenodd;fill:#B9232E;" d="M219.377,346.192
								c80.282,0,145.752-65.471,145.752-145.751s-65.471-145.75-145.752-145.75c-80.279,0-145.75,65.47-145.75,145.75
								S139.098,346.192,219.377,346.192L219.377,346.192z"/>
							<path id="XMLID_371_" style="fill-rule:evenodd;clip-rule:evenodd;fill:#CE2828;" d="M78.09,236.389
								c-2.918-11.5-4.463-23.54-4.463-35.947c0-43.524,19.077-82.561,49.311-109.288c-9.097,15.791-18.414,38.89-13.045,61.448
								c9.539,39.797,4.341,83.91-29.399,83.91C79.684,236.512,78.874,236.462,78.09,236.389L78.09,236.389z"/>
							<path id="XMLID_370_" style="fill-rule:evenodd;clip-rule:evenodd;fill:#CE2828;" d="M238.088,55.868
								c45.584,5.86,84.596,32.76,106.934,70.668c-3.678,8.681-8.115,25.478-2.428,49.409c8.656,36.34,2.6,41.538-36.314,79.594
								c-26.434,25.845-24.57,57.231-20.621,74.764c-19.887,10.151-42.422,15.89-66.282,15.89c-22.166,0-43.18-4.954-62.012-13.806
								c11.059-26.434,52.326-27.39,78.834-65.593c29.401-42.396-12.113-45.854-27.684-114.192
								C196.526,99.956,224.577,67.858,238.088,55.868L238.088,55.868z"/>
							<g id="XMLID_366_">
								<path id="XMLID_369_" style="fill-rule:evenodd;clip-rule:evenodd;fill:#CF3C46;" d="M219.377,54.691
									c21.457,0,41.809,4.634,60.151,12.946c-32.123-5.443-104.924-10.74-151.661,40.631
									c-48.062,52.793-47.938,118.803-36.904,161.198c-11.059-20.548-17.336-44.063-17.336-69.025
									C73.627,119.94,138.877,54.691,219.377,54.691L219.377,54.691z"/>
								<path id="XMLID_368_" style="fill-rule:evenodd;clip-rule:evenodd;fill:#E34646;" d="M78.09,236.389
									c-1.937-7.675-3.286-15.619-3.972-23.735v-0.221c-0.025-0.271-0.05-0.564-0.074-0.858l-0.024-0.27
									c-0.024-0.271-0.05-0.54-0.05-0.81l-0.049-0.441l-0.023-0.613l-0.05-0.588l-0.024-0.441c0-0.295-0.024-0.589-0.024-0.858
									l-0.024-0.123v-0.049c0-0.318-0.025-0.638-0.025-0.956l-0.023-0.245c0-0.319-0.025-0.638-0.025-0.957v-0.195
									c-0.023-0.319-0.023-0.613-0.023-0.933l-0.025-0.27c0-0.343,0-0.686-0.024-1.029v-0.024l0,0c0-0.368,0-0.761,0-1.129v-0.024
									v-0.024l0,0c0-0.392,0-0.76,0-1.152c0-1.177,0-2.354,0.05-3.531v-0.343c0.023-1.104,0.072-2.207,0.122-3.311l0.024-0.515
									c0.049-1.079,0.123-2.134,0.196-3.212l0.049-0.564c0.073-1.055,0.172-2.108,0.271-3.163l0.072-0.589
									c0.099-1.054,0.221-2.108,0.368-3.163l0.05-0.49c0.146-1.079,0.294-2.133,0.465-3.212c0-0.123,0.025-0.245,0.05-0.368
									c0.147-1.029,0.318-2.06,0.515-3.09c0.024-0.122,0.024-0.22,0.049-0.343c0.196-1.03,0.393-2.06,0.613-3.114
									c0.024-0.172,0.074-0.368,0.098-0.563c0.221-0.981,0.418-1.962,0.639-2.943c0.072-0.245,0.122-0.466,0.171-0.687
									c0.221-0.956,0.441-1.888,0.687-2.844c0.074-0.245,0.123-0.516,0.196-0.761c0.245-0.932,0.49-1.839,0.761-2.77
									c0.072-0.27,0.146-0.515,0.221-0.784c0.244-0.908,0.514-1.816,0.809-2.723c0.074-0.27,0.172-0.515,0.245-0.784
									c0.27-0.834,0.54-1.692,0.81-2.525c0.098-0.27,0.195-0.564,0.294-0.834c0.27-0.784,0.54-1.569,0.81-2.329
									c0.122-0.295,0.221-0.613,0.343-0.907c0.294-0.785,0.589-1.594,0.907-2.379c0.123-0.318,0.245-0.638,0.368-0.956
									c0.318-0.785,0.638-1.569,0.956-2.355c0.146-0.343,0.295-0.711,0.441-1.054c0.318-0.761,0.662-1.496,0.98-2.231
									c0.172-0.393,0.344-0.761,0.516-1.152c0.343-0.712,0.662-1.423,1.005-2.134c0.196-0.393,0.393-0.784,0.589-1.201
									c0.27-0.54,0.539-1.104,0.809-1.668c0.271-0.539,0.564-1.054,0.834-1.594c0.245-0.466,0.49-0.932,0.735-1.397
									c0.318-0.613,0.662-1.201,0.98-1.814c0.246-0.417,0.467-0.834,0.712-1.275c0.368-0.638,0.735-1.25,1.103-1.888
									c0.221-0.393,0.467-0.785,0.688-1.177c0.367-0.613,0.735-1.202,1.104-1.814c0.27-0.417,0.515-0.834,0.784-1.251
									c0.294-0.49,0.613-0.956,0.907-1.422c0.246-0.393,0.49-0.761,0.736-1.128c0.441-0.662,0.883-1.3,1.324-1.962
									c0.146-0.221,0.318-0.441,0.465-0.662c0.54-0.785,1.103-1.569,1.668-2.354c0.146-0.195,0.27-0.392,0.416-0.588
									c0.59-0.785,1.178-1.594,1.791-2.379l0.393-0.539c0.637-0.834,1.299-1.643,1.961-2.452l0.295-0.393
									c0.711-0.883,1.446-1.766,2.182-2.624l0.147-0.171c2.845-3.335,5.836-6.547,8.95-9.588l0.146-0.147
									c0.858-0.833,1.717-1.667,2.6-2.477l0.073-0.098c0.907-0.834,1.815-1.643,2.747-2.477l0.023-0.024
									c-6.62,11.524-13.363,26.899-14.467,43.107c-20.425,33.985-25.329,70.692-22.976,101.883
									c-1.594,0.245-3.262,0.368-5.002,0.368C79.684,236.512,78.874,236.462,78.09,236.389L78.09,236.389z"/>
								<path id="XMLID_367_" style="fill-rule:evenodd;clip-rule:evenodd;fill:#E34646;" d="M238.088,55.868
									c14.59,1.888,28.493,5.909,41.415,11.77c-12.113-2.06-29.963-4.07-50.047-3.065C232.594,60.993,235.586,58.1,238.088,55.868
									L238.088,55.868z"/>
							</g>
						</g>
						<g id="XMLID_222_">
							<g id="XMLID_277_">
								<path id="XMLID_279_" style="fill-rule:evenodd;clip-rule:evenodd;fill:#A72029;" d="M133.727,196.224
									c6.303-9.955,17.656-18.439,38.082-18.268c48.869,0.441,55.367,62.724,20.744,76.994
									c-18.637,7.676-34.893,7.455-46.785,1.03C123.577,243.99,121.05,216.208,133.727,196.224L133.727,196.224z"/>
								<path id="XMLID_278_" style="fill-rule:evenodd;clip-rule:evenodd;fill:#921D30;" d="M211.409,204.046
									c7.258,19.004,0.883,42.764-18.855,50.904c-18.637,7.676-34.893,7.455-46.785,1.03
									c-13.291-7.185-19.52-20.009-19.666-33.445c3.04,8.655,12.357,22.901,40.949,22.901
									C203.612,245.436,210.379,211.525,211.409,204.046L211.409,204.046z"/>
							</g>
							<g id="XMLID_274_">
								<path id="XMLID_276_" style="fill-rule:evenodd;clip-rule:evenodd;fill:#B9232E;" d="M254.321,133.941
									c2.795-7.993,9.342-15.791,23.662-18.979c34.279-7.675,48.967,34.844,27.096,50.463
									c-11.795,8.436-23.197,10.937-32.588,8.362C255.007,169.03,248.729,150.003,254.321,133.941L254.321,133.941z"/>
								<path id="XMLID_275_" style="fill-rule:evenodd;clip-rule:evenodd;fill:#A72029;" d="M309.958,126.757
									c8.166,12.113,7.602,29.769-4.879,38.669c-11.795,8.436-23.197,10.937-32.588,8.362
									c-10.471-2.845-16.92-10.814-19.201-20.181c3.531,5.565,12.359,14.001,32.369,9.342
									C311.233,156.967,310.448,132.151,309.958,126.757L309.958,126.757z"/>
							</g>
							<g id="XMLID_246_">
								<path id="XMLID_248_" style="fill-rule:evenodd;clip-rule:evenodd;fill:#B9232E;" d="M231.295,301.883
									c1.373-3.923,4.586-7.748,11.623-9.317c16.821-3.776,24.055,17.115,13.29,24.79c-5.786,4.12-11.377,5.346-15.987,4.095
									C231.639,319.121,228.549,309.778,231.295,301.883L231.295,301.883z"/>
								<path id="XMLID_247_" style="fill-rule:evenodd;clip-rule:evenodd;fill:#A72029;" d="M258.612,298.353
									c4.021,5.958,3.727,14.614-2.404,19.003c-5.786,4.12-11.377,5.346-15.987,4.095c-5.15-1.397-8.313-5.296-9.441-9.906
									c1.742,2.722,6.082,6.866,15.914,4.586C259.249,313.188,258.856,301,258.612,298.353L258.612,298.353z"/>
							</g>
							<path id="XMLID_245_" style="fill-rule:evenodd;clip-rule:evenodd;fill:#921D30;" d="M135.42,105.032
								c0,0,9.096-12.113,15.57-15.154c6.498-3.016,20.328,5.198,20.77,7.356c0.441,2.158-6.916,20.327-11.256,22.927
								C156.188,122.76,129.804,117.562,135.42,105.032L135.42,105.032z"/>
							<path id="XMLID_244_" style="fill-rule:evenodd;clip-rule:evenodd;fill:#921D30;" d="M139.612,291.879
								c0,0,4.734-6.326,8.117-7.896c3.385-1.594,10.594,2.697,10.838,3.825c0.221,1.128-3.629,10.593-5.885,11.941
								C150.426,301.123,136.67,298.401,139.612,291.879L139.612,291.879z"/>
							<path id="XMLID_243_" style="fill-rule:evenodd;clip-rule:evenodd;fill:#B9232E;" d="M285.487,219.273
								c0,0,7.576-2.231,11.23-1.472c3.652,0.761,6.865,8.509,6.375,9.563c-0.49,1.03-9.244,6.326-11.844,6.057
								C288.626,233.177,279.21,222.78,285.487,219.273L285.487,219.273z"/>
							<path id="XMLID_242_" style="fill-rule:evenodd;clip-rule:evenodd;fill:#A72029;" d="M312.288,268.584
								c0,0,7.576-2.232,11.23-1.471c3.652,0.76,6.891,8.508,6.4,9.563c-0.516,1.03-9.246,6.326-11.869,6.057
								C315.45,282.463,306.034,272.066,312.288,268.584L312.288,268.584z"/>
							<path id="XMLID_223_" style="fill-rule:evenodd;clip-rule:evenodd;fill:#A72029;" d="M246.375,75.828l14.272-8.656
								l19.027,6.498l6.475,9.072c0,0,0,5.199-3.459,7.356c-3.457,2.158-9.93,3.457-13.387,4.34
								c-3.482,0.858-13.855,1.275-13.855,1.275S240.737,86.642,246.375,75.828L246.375,75.828z"/>
						</g>
					</g>
					<g id="XMLID_209_">
						<g id="XMLID_215_">
							<path id="XMLID_220_" style="fill-rule:evenodd;clip-rule:evenodd;fill:#FFE975;" d="M425.255,196.984
								c13.828,0,25.084-11.279,25.084-25.085c0-13.829-11.256-25.085-25.084-25.085c-13.807,0-25.086,11.256-25.086,25.085
								C400.169,185.705,411.448,196.984,425.255,196.984L425.255,196.984z"/>
							<path id="XMLID_219_" style="fill-rule:evenodd;clip-rule:evenodd;fill:#E3C357;" d="M443.694,188.917
								c-1.301,1.397-2.771,2.648-4.34,3.727c-1.373-0.809-3.238-2.182-4.463-4.267c-2.158-3.678,0.441-11.476-5.715-12.554
								c-6.178-1.079-12.994,1.618-15.031-2.918c-1.666-3.679,2.109-19.176,3.631-24.962c0.662-0.196,1.348-0.393,2.035-0.54
								c-1.154,5.86-3.434,19.028-1.031,22.044c3.139,3.899,13.855-0.539,15.693,3.776c1.84,4.34-1.74,6.719,2.035,10.937
								C438.593,186.465,441.487,188.01,443.694,188.917L443.694,188.917z"/>
							<path id="XMLID_218_" style="fill-rule:evenodd;clip-rule:evenodd;fill:#E3C357;" d="M450.192,169.251
								c0.098,0.858,0.147,1.741,0.147,2.648c0,4.586-1.227,8.901-3.385,12.604c-3.188-1.226-7.699-3.653-8.115-7.675
								C438.397,172.513,445.655,170.232,450.192,169.251L450.192,169.251z"/>
							<path id="XMLID_217_" style="fill-rule:evenodd;clip-rule:evenodd;fill:#E3C357;" d="M425.255,146.814
								c0.539,0,1.078,0.025,1.617,0.05c-0.123,2.354-0.441,11.475,2.305,12.407c2.697,0.932,10.52-3.016,13.537-5.37
								c1.422,1.373,2.697,2.918,3.75,4.61c-5.246,3.923-15.275,10.519-19.959,7.724c-4.609-2.796-3.311-13.511-2.158-19.396
								C424.642,146.814,424.96,146.814,425.255,146.814L425.255,146.814z"/>
							<path id="XMLID_216_" style="fill-rule:evenodd;clip-rule:evenodd;fill:#E3C357;" d="M432.782,195.832
								c-2.379,0.76-4.904,1.152-7.527,1.152c-13.855,0-25.086-11.23-25.086-25.085c0-9.783,5.592-18.243,13.756-22.387
								c-3.383,7.944-8.875,23.122-3.85,27.536c6.916,6.057,18.611-0.441,21.629,13.413
								C432.169,192.521,432.513,194.311,432.782,195.832L432.782,195.832z"/>
						</g>
						<g id="XMLID_210_">
							<path id="XMLID_214_" style="fill-rule:evenodd;clip-rule:evenodd;fill:#FFEEA9;" d="M403.087,183.62
								c-3.188,4.291-15.35,21.382-6.203,21.75c8.41,0.344,39.06-20.205,54.02-36.609c11.695-12.824,17.924-36.952-9.072-18.586
								c-0.639,0.416-1.275,0.857-1.938,1.348c0.293,0.196,0.564,0.417,0.857,0.638c6.082-2.452,13.291-4.585,11.941,1.741
								c-1.691,7.847-39.355,39.896-48.674,42.494c-6.105,1.717-2.967-5.885-0.098-11.304
								C403.628,184.626,403.356,184.136,403.087,183.62L403.087,183.62z"/>
							<g id="XMLID_211_">
								<path id="XMLID_213_" style="fill-rule:evenodd;clip-rule:evenodd;fill:#FFFFFF;" d="M443.866,149.929
									c0,0,11.572-6.914,13.315-2.477c2.721,6.989-9.686,19.936-14.395,24.864c2.477-2.624,19.348-23.417,11.477-25.207
									C451.614,146.52,443.987,149.929,443.866,149.929L443.866,149.929z"/>
								<path id="XMLID_212_" style="fill-rule:evenodd;clip-rule:evenodd;fill:#FFFFFF;" d="M398.233,194.483
									c0,0-2.576,6.693,0.342,6.596c2.918-0.123,9.293-3.359,9.293-3.359s-7.576,3.139-9.096,1.962
									C397.276,198.48,398.233,194.581,398.233,194.483L398.233,194.483z"/>
							</g>
						</g>
					</g>
					<g id="XMLID_197_">
						<path id="XMLID_208_" style="fill-rule:evenodd;clip-rule:evenodd;fill:#2C52B7;" d="M396.026,461.733
							c30.748,0,55.809-25.06,55.809-55.785c0-30.724-25.061-55.809-55.809-55.809c-30.725,0-55.785,25.085-55.785,55.809
							C340.241,436.673,365.302,461.733,396.026,461.733L396.026,461.733z"/>
						<g id="XMLID_205_">
							<path id="XMLID_207_" style="fill-rule:evenodd;clip-rule:evenodd;fill:#4F65D7;" d="M432.561,448.124
								c-8.508,7.381-19.273,12.211-31.141,13.364c2.746-4.586,6.498-12.334,6.08-20.083c-0.662-12.113-7.994-15.987-7.797-24.423
								c0.221-8.434,11.254-13.853,13.412-20.131c2.158-6.253,12.334-1.275,12.113,5.64c-0.221,6.915-6.914,11.451-6.277,17.728
								C419.517,425.491,430.306,439.346,432.561,448.124L432.561,448.124z"/>
							<path id="XMLID_206_" style="fill-rule:evenodd;clip-rule:evenodd;fill:#4F65D7;" d="M369.936,356.638
								c7.625-4.046,16.305-6.4,25.525-6.474c0.662,5.248,0.906,13.658-3.752,15.987
								C385.679,369.168,373.761,363.332,369.936,356.638L369.936,356.638z"/>
						</g>
						<g id="XMLID_202_">
							<path id="XMLID_204_" style="fill-rule:evenodd;clip-rule:evenodd;fill:#3B54D2;" d="M407.575,351.341
								c25.281,5.321,44.26,27.758,44.26,54.607c0,12.996-4.44,24.938-11.893,34.428c-5.885-6.67-4.66-21.211-3.678-33.569
								c1.299-16.429-9.098-20.327-24.227-32.44C400.88,365.44,404.78,355.779,407.575,351.341L407.575,351.341z"/>
							<path id="XMLID_203_" style="fill-rule:evenodd;clip-rule:evenodd;fill:#3B54D2;" d="M384.011,460.434
								c-4.438-0.982-8.68-2.477-12.652-4.439c2.477-3.825,3.727-9.392-2.574-15.448c-11.672-11.255-16.43-0.441-21.188-8.655
								c-4.756-8.215,8.215-17.729,2.158-25.502c-2.795-3.604-6.154-6.105-8.998-8.092c1.568-11.476,6.645-21.848,14.1-29.988
								c3.016,6.253,9.268,14.663,21.283,16.012c19.469,2.158,26.385,3.458,19.887,12.53c-6.475,9.097-15.988,15.57-4.758,28.566
								C401.739,437.482,397.227,455.554,384.011,460.434L384.011,460.434z"/>
						</g>
						<g id="XMLID_198_">
							<path id="XMLID_201_" style="fill-rule:evenodd;clip-rule:evenodd;fill:#4163BE;" d="M391.366,357.03
								c0,0-18.488,5.198-29.521,27.242c-11.035,22.068-4.537,39.576-4.537,39.576s-13.953-19.126-2.6-44.112
								C366.061,354.75,390.704,356.711,391.366,357.03L391.366,357.03z"/>
							<path id="XMLID_200_" style="fill-rule:evenodd;clip-rule:evenodd;fill:#6174DB;" d="M378.272,364.165
								c-1.889-1.029-3.678-2.28-5.174-3.678c9.318-4.389,17.875-3.653,18.268-3.457
								C391.366,357.03,385.409,358.697,378.272,364.165L378.272,364.165z"/>
							<path id="XMLID_199_" style="fill-rule:evenodd;clip-rule:evenodd;fill:#4F65D7;" d="M358.044,373.655
								c1.643,2.206,3.678,4.389,6.229,6.203c-0.834,1.398-1.645,2.869-2.428,4.414c-11.035,22.068-4.537,39.576-4.537,39.576
								s-13.953-19.126-2.6-44.112C355.714,377.505,356.843,375.47,358.044,373.655L358.044,373.655z"/>
						</g>
					</g>
				</g>
			</g>
			<g id="XMLID_116_">
				<g id="XMLID_193_">
					<g>
						<path style="fill:#FFFFFF;" d="M104.904,221.316c0.064,0,0.064-0.1,0-0.1C104.839,221.217,104.839,221.316,104.904,221.316
							L104.904,221.316z"/>
					</g>
				</g>
				<path id="XMLID_192_" style="fill-rule:evenodd;clip-rule:evenodd;fill:#FFFFFF;" d="M301.792,362.621
					c0,0,0.541,9.415-3.039,12.554c-3.557,3.139-9.293,1.84-9.293,1.84s10.053,1.839,10.91,6.375
					c0.883,4.536,0.344,7.675,0.344,7.675s0.857-7.675,4.978-9.955c4.094-2.256,7.772-2.796,7.772-2.796s-7.895-0.122-9.514-2.599
					C302.333,373.214,301.671,362.621,301.792,362.621L301.792,362.621z"/>
				<path id="XMLID_191_" style="fill-rule:evenodd;clip-rule:evenodd;fill:#FFFFFF;" d="M68.233,30.44c0,0,0.54,9.416-3.041,12.555
					c-3.555,3.139-9.293,1.839-9.293,1.839s10.054,1.839,10.912,6.375c0.883,4.536,0.343,7.675,0.343,7.675s0.858-7.675,4.979-9.931
					c4.094-2.28,7.772-2.819,7.772-2.819s-7.896-0.123-9.515-2.6C68.773,41.058,68.111,30.44,68.233,30.44L68.233,30.44z"/>
				<path id="XMLID_190_" style="fill-rule:evenodd;clip-rule:evenodd;fill:#FFFFFF;" d="M72.818,360.757
					c2.134,0,3.899-1.766,3.899-3.898s-1.766-3.898-3.899-3.898c-2.133,0-3.898,1.766-3.898,3.898S70.685,360.757,72.818,360.757
					L72.818,360.757z"/>
				<path id="XMLID_189_" style="fill-rule:evenodd;clip-rule:evenodd;fill:#FFFFFF;" d="M460.784,107.41
					c1.252,0,2.281-1.029,2.281-2.28s-1.029-2.28-2.281-2.28c-1.25,0-2.279,1.029-2.279,2.28S459.534,107.41,460.784,107.41
					L460.784,107.41z"/>
				<g id="XMLID_186_">
					<path id="XMLID_188_" style="fill-rule:evenodd;clip-rule:evenodd;fill:#B18FCF;" d="M28.044,258.261
						c2.599-3.236,33.96-32.367,35.456-31.999c1.324,0.344-20.499,29.743-25.918,37.296c-2.108,2.894-5.542,5.346-8.926,2.207
						C26.205,263.483,25.788,261.081,28.044,258.261L28.044,258.261z"/>
					<path id="XMLID_187_" style="fill-rule:evenodd;clip-rule:evenodd;fill:#FFFFFF;" d="M32.359,265.617
						c4.856,0,7.087-11.819,5.935-11.819c-2.403,0-10.274,5.076-10.274,7.479C28.019,263.68,29.956,265.617,32.359,265.617
						L32.359,265.617z"/>
				</g>
				<path id="XMLID_185_" style="fill-rule:evenodd;clip-rule:evenodd;fill:#FFFFFF;" d="M471.157,447.364
					c1.25,0,2.279-1.03,2.279-2.28c0-1.251-1.029-2.256-2.279-2.256s-2.256,1.005-2.256,2.256
					C468.901,446.334,469.907,447.364,471.157,447.364L471.157,447.364z"/>
				<path id="XMLID_184_" style="fill-rule:evenodd;clip-rule:evenodd;fill:#FFFFFF;" d="M272.638,42.529
					c1.25,0,2.281-1.03,2.281-2.281c0-1.25-1.031-2.256-2.281-2.256s-2.279,1.006-2.279,2.256
					C270.358,41.499,271.388,42.529,272.638,42.529L272.638,42.529z"/>
				<path id="XMLID_183_" style="fill-rule:evenodd;clip-rule:evenodd;fill:#FFFFFF;" d="M257.067,462.935
					c1.25,0,2.279-1.03,2.279-2.28c0-1.251-1.029-2.256-2.279-2.256c-1.25,0-2.281,1.005-2.281,2.256
					C254.786,461.904,255.817,462.935,257.067,462.935L257.067,462.935z"/>
				<path id="XMLID_182_" style="fill-rule:evenodd;clip-rule:evenodd;fill:#FFFFFF;" d="M467.282,372.429
					c2.133,0,3.875-1.74,3.875-3.898c0-2.134-1.742-3.874-3.875-3.874c-2.158,0-3.898,1.74-3.898,3.874
					C463.384,370.689,465.124,372.429,467.282,372.429L467.282,372.429z"/>
				<path id="XMLID_181_" style="fill-rule:evenodd;clip-rule:evenodd;fill:#FFFFFF;" d="M126.028,45.446
					c2.134,0,3.875-1.74,3.875-3.898c0-2.133-1.741-3.874-3.875-3.874c-2.158,0-3.898,1.741-3.898,3.874
					C122.129,43.706,123.87,45.446,126.028,45.446L126.028,45.446z"/>
				<path id="XMLID_180_" style="fill-rule:evenodd;clip-rule:evenodd;fill:#FFFFFF;" d="M358.288,320.2
					c1.25,0,2.256-1.006,2.256-2.256c0-1.275-1.006-2.28-2.256-2.28s-2.279,1.005-2.279,2.28
					C356.009,319.194,357.038,320.2,358.288,320.2L358.288,320.2z"/>
				<path id="XMLID_179_" style="fill-rule:evenodd;clip-rule:evenodd;fill:#FFFFFF;" d="M471.18,216.539
					c1.25,0,2.256-1.006,2.256-2.256c0-1.275-1.006-2.28-2.256-2.28s-2.279,1.005-2.279,2.28
					C468.9,215.533,469.93,216.539,471.18,216.539L471.18,216.539z"/>
				<path id="XMLID_178_" style="fill-rule:evenodd;clip-rule:evenodd;fill:#FFFFFF;" d="M369.947,105.117
					c1.25,0,2.256-1.006,2.256-2.256c0-1.275-1.006-2.28-2.256-2.28s-2.279,1.005-2.279,2.28
					C367.668,104.111,368.697,105.117,369.947,105.117L369.947,105.117z"/>
				<path id="XMLID_177_" style="fill-rule:evenodd;clip-rule:evenodd;fill:#FFFFFF;" d="M471.157,34.756
					c1.25,0,2.279-1.03,2.279-2.28c0-1.251-1.029-2.28-2.279-2.28s-2.256,1.029-2.256,2.28
					C468.901,33.726,469.907,34.756,471.157,34.756L471.157,34.756z"/>
				<path id="XMLID_176_" style="fill-rule:evenodd;clip-rule:evenodd;fill:#FFFFFF;" d="M458.185,68.814
					c2.158,0,3.9-1.765,3.9-3.898c0-2.158-1.742-3.898-3.9-3.898c-2.133,0-3.898,1.74-3.898,3.898
					C454.286,67.05,456.052,68.814,458.185,68.814L458.185,68.814z"/>
				<g id="XMLID_172_">
					<path id="XMLID_175_" style="fill-rule:evenodd;clip-rule:evenodd;fill:#FFDE59;" d="M209.055,411.686
						c6.252,0,11.354-5.101,11.354-11.353c0-6.252-5.102-11.353-11.354-11.353c-6.252,0-11.354,5.101-11.354,11.353
						C197.702,406.586,202.803,411.686,209.055,411.686L209.055,411.686z"/>
					<path id="XMLID_174_" style="fill-rule:evenodd;clip-rule:evenodd;fill:#66FFCC;" d="M393.304,57.78
						c4.291,0,7.797-3.506,7.797-7.797s-3.506-7.773-7.797-7.773c-4.291,0-7.773,3.482-7.773,7.773S389.013,57.78,393.304,57.78
						L393.304,57.78z"/>
					<path id="XMLID_173_" style="fill-rule:evenodd;clip-rule:evenodd;fill:#FF6633;" d="M402.401,261.007
						c2.574,0,4.684-2.108,4.684-4.708c0-2.599-2.109-4.707-4.684-4.707c-2.6,0-4.709,2.108-4.709,4.707
						C397.692,258.898,399.802,261.007,402.401,261.007L402.401,261.007z"/>
				</g>
				<path id="XMLID_171_" style="fill-rule:evenodd;clip-rule:evenodd;fill:#FFFFFF;" d="M50.75,132.054
					c1.25,0,2.279-1.006,2.279-2.256c0-1.275-1.029-2.28-2.279-2.28c-1.251,0-2.256,1.005-2.256,2.28
					C48.495,131.048,49.5,132.054,50.75,132.054L50.75,132.054z"/>
				<path id="XMLID_170_" style="fill-rule:evenodd;clip-rule:evenodd;fill:#FFFFFF;" d="M48.175,410.068
					c2.134,0,3.874-1.766,3.874-3.899c0-2.157-1.74-3.898-3.874-3.898c-2.158,0-3.899,1.741-3.899,3.898
					C44.276,408.303,46.017,410.068,48.175,410.068L48.175,410.068z"/>
				<path id="XMLID_169_" style="fill-rule:evenodd;clip-rule:evenodd;fill:#FFFFFF;" d="M168.842,455.161
					c1.25,0,2.279-1.029,2.279-2.28c0-1.25-1.029-2.28-2.279-2.28c-1.252,0-2.281,1.03-2.281,2.28
					C166.561,454.132,167.59,455.161,168.842,455.161L168.842,455.161z"/>
				<path id="XMLID_168_" style="fill-rule:evenodd;clip-rule:evenodd;fill:#FFFFFF;" d="M52.049,479.805
					c1.25,0,2.28-1.03,2.28-2.28c0-1.251-1.03-2.28-2.28-2.28s-2.256,1.029-2.256,2.28
					C49.793,478.774,50.799,479.805,52.049,479.805L52.049,479.805z"/>
				<g id="XMLID_165_">
					<path id="XMLID_167_" style="fill-rule:evenodd;clip-rule:evenodd;fill:#B18FCF;" d="M431.581,293.301
						c2.6-3.236,33.961-32.392,35.457-31.999c1.324,0.318-20.475,29.743-25.92,37.296c-2.084,2.894-5.541,5.32-8.924,2.206
						C429.767,298.523,429.325,296.097,431.581,293.301L431.581,293.301z"/>
					<path id="XMLID_166_" style="fill-rule:evenodd;clip-rule:evenodd;fill:#FFFFFF;" d="M435.895,300.657
						c4.856,0,7.088-11.819,5.936-11.819c-2.404,0-10.275,5.076-10.275,7.48C431.556,298.72,433.493,300.657,435.895,300.657
						L435.895,300.657z"/>
				</g>
			</g>
		</g>
	</g>
</g>
<g id="Designed_by_Freepik">
	<g id="XMLID_1_">
		<g id="XMLID_60_">
			<g id="XMLID_79_">
				<path id="XMLID_87_" style="fill:#F9FBFC;" d="M260.104,464.338c-0.432,0.443-0.803,0.931-1.107,1.453l-0.467-0.241
					c-0.066-0.298-0.348-0.503-0.658-0.466c-0.33,0.039-0.568,0.338-0.529,0.67c0.039,0.33,0.34,0.567,0.67,0.528
					c0.066-0.008,0.127-0.026,0.184-0.052l0.451,0.234c-0.25,0.553-0.432,1.139-0.539,1.743l0.746,0.132
					c0.23-1.307,0.85-2.507,1.793-3.473L260.104,464.338z"/>
				<path id="XMLID_86_" style="fill:#F9FBFC;" d="M265.593,462.035c-0.172,0-0.342,0.007-0.51,0.018l-0.074-0.627
					c0.188-0.148,0.297-0.389,0.266-0.644c-0.045-0.393-0.402-0.675-0.795-0.628c-0.393,0.046-0.674,0.402-0.629,0.795
					c0.031,0.254,0.189,0.461,0.406,0.564l0.072,0.624c-0.713,0.117-1.402,0.332-2.059,0.647l0.326,0.684
					c0.934-0.447,1.941-0.674,2.996-0.674c0.496,0,0.992,0.054,1.475,0.158l0.16-0.74
					C266.692,462.095,266.144,462.035,265.593,462.035z"/>
				<path id="XMLID_85_" style="fill:#F9FBFC;" d="M272.194,464.583c0.332-0.04,0.566-0.342,0.525-0.673
					c-0.039-0.33-0.342-0.565-0.672-0.525c-0.309,0.038-0.535,0.305-0.529,0.609l-0.416,0.363c-0.418-0.431-0.891-0.813-1.408-1.14
					l-0.404,0.642c1.135,0.715,2.021,1.726,2.564,2.925l0.689-0.313c-0.25-0.554-0.566-1.071-0.941-1.545l0.402-0.351
					C272.065,464.588,272.13,464.591,272.194,464.583z"/>
				<path id="XMLID_84_" style="fill:#F9FBFC;" d="M265.044,472.244c-0.385,0.023-0.773,0.035-1.156,0.035
					c-0.881,0-1.732-0.06-2.479-0.18c-0.391-0.063-0.846-0.154-1.27-0.292c1.045,1.86,3.068,3.125,5.387,3.125
					c2.855,0,5.264-1.916,5.951-4.504c-0.682,0.45-1.506,0.825-2.459,1.122C267.839,471.92,266.464,472.158,265.044,472.244z"/>
				<path id="XMLID_80_" style="fill:#F9FBFC;" d="M265.593,463.552c-3.354,0-6.08,2.667-6.08,5.943
					c0,0.426,0.047,0.849,0.137,1.262c0.674,0.482,2.707,0.89,5.348,0.732c2.879-0.174,5.297-0.958,6.672-2.159
					c-0.006-0.194-0.02-0.39-0.045-0.582C271.243,465.785,268.651,463.552,265.593,463.552z M263.433,470.066
					c-1.02,0-1.85-0.83-1.85-1.85s0.83-1.85,1.85-1.85s1.85,0.83,1.85,1.85S264.452,470.066,263.433,470.066z M268.171,469.158
					c-0.75,0-1.361-0.609-1.361-1.359s0.611-1.361,1.361-1.361s1.359,0.611,1.359,1.361S268.921,469.158,268.171,469.158z"/>
			</g>
			<path id="XMLID_77_" style="fill:#F9FBFC;" d="M281.595,465.419c-0.293-0.116-0.805-0.31-1.381-0.237
				c-0.551,0.068-0.844,0.34-0.844,1.007v0.866h2.227v1.717h-2.227v5.455h-1.932v-5.455h-1.34v-1.717h1.34v-0.889
				c0-1.68,0.895-2.783,2.568-2.783c0.643,0,1.156,0.122,1.59,0.309L281.595,465.419z"/>
			<path id="XMLID_75_" style="fill:#F9FBFC;" d="M286.298,468.751c-0.176-0.03-0.357-0.046-0.525-0.046
				c-0.896,0-1.51,0.547-1.51,1.613v3.908h-1.932v-7.172h1.871v0.784c0.453-0.673,1.141-0.978,2.022-0.978
				c0.414,0,0.848,0.128,1.094,0.338L286.298,468.751z"/>
			<path id="XMLID_72_" style="fill:#F9FBFC;" d="M293.966,470.629c0,0.223-0.016,0.488-0.037,0.651h-5.084
				c0.207,1.036,0.932,1.487,1.842,1.487c0.621,0,1.295-0.251,1.813-0.688l1.133,1.243c-0.814,0.747-1.85,1.088-3.057,1.088
				c-2.197,0-3.723-1.495-3.723-3.753c0-2.257,1.481-3.797,3.627-3.797C292.544,466.861,293.958,468.395,293.966,470.629z
				 M288.851,469.963h3.176c-0.178-0.918-0.733-1.436-1.563-1.436C289.554,468.527,289.022,469.074,288.851,469.963z"/>
			<path id="XMLID_69_" style="fill:#F9FBFC;" d="M301.618,470.629c0,0.223-0.014,0.488-0.037,0.651h-5.084
				c0.207,1.036,0.932,1.487,1.844,1.487c0.621,0,1.295-0.251,1.813-0.688l1.133,1.243c-0.814,0.747-1.852,1.088-3.057,1.088
				c-2.199,0-3.723-1.495-3.723-3.753c0-2.257,1.48-3.797,3.625-3.797C300.198,466.861,301.612,468.395,301.618,470.629z
				 M296.505,469.963h3.176c-0.178-0.918-0.734-1.436-1.563-1.436C297.208,468.527,296.675,469.074,296.505,469.963z"/>
			<path id="XMLID_66_" style="fill:#F9FBFC;" d="M309.964,470.637c0,2.154-1.494,3.774-3.471,3.774
				c-0.963,0-1.643-0.378-2.109-0.933v3.709h-1.924v-10.133h1.887v0.791c0.467-0.584,1.154-0.984,2.139-0.984
				C308.47,466.861,309.964,468.482,309.964,470.637z M304.288,470.637c0,1.133,0.746,1.977,1.842,1.977
				c1.141,0,1.852-0.881,1.852-1.977s-0.711-1.977-1.852-1.977C305.034,468.66,304.288,469.504,304.288,470.637z"/>
			<path id="XMLID_63_" style="fill:#F9FBFC;" d="M313.067,464.708c0,0.696-0.539,1.228-1.236,1.228
				c-0.695,0-1.229-0.532-1.229-1.228c0-0.696,0.533-1.243,1.229-1.243C312.528,463.465,313.067,464.012,313.067,464.708z
				 M312.81,474.227h-1.932v-7.172h1.932V474.227z"/>
			<path id="XMLID_61_" style="fill:#F9FBFC;" d="M316.032,469.607l2.701-2.553h2.369l-3.478,3.375l3.5,3.797h-2.375l-2.717-2.902
				v2.902h-1.932v-10.658h1.932V469.607z"/>
		</g>
		<g id="XMLID_2_">
			<path id="XMLID_57_" style="fill:#F9FBFC;" d="M184.413,474.161v-1.055c-0.527,0.718-1.393,1.23-2.389,1.23
				c-1.846,0-3.148-1.406-3.148-3.706c0-2.256,1.289-3.721,3.148-3.721c0.953,0,1.816,0.469,2.389,1.246v-3.766h1.098v9.771H184.413
				z M184.413,472.242v-3.207c-0.396-0.615-1.246-1.143-2.125-1.143c-1.42,0-2.27,1.172-2.27,2.738c0,1.568,0.85,2.725,2.27,2.725
				C183.167,473.355,184.017,472.857,184.413,472.242z"/>
			<path id="XMLID_54_" style="fill:#F9FBFC;" d="M186.933,470.617c0-2.051,1.465-3.707,3.486-3.707c2.139,0,3.398,1.67,3.398,3.794
				v0.278h-5.729c0.088,1.334,1.025,2.446,2.549,2.446c0.807,0,1.627-0.322,2.184-0.894l0.525,0.719
				c-0.701,0.703-1.654,1.083-2.811,1.083C188.44,474.337,186.933,472.828,186.933,470.617z M190.403,467.818
				c-1.508,0-2.256,1.275-2.314,2.358h4.645C192.718,469.122,192.015,467.818,190.403,467.818z"/>
			<path id="XMLID_52_" style="fill:#F9FBFC;" d="M194.606,473.224l0.572-0.79c0.469,0.541,1.361,1.01,2.328,1.01
				c1.084,0,1.67-0.513,1.67-1.216c0-1.714-4.379-0.659-4.379-3.281c0-1.099,0.951-2.036,2.637-2.036
				c1.201,0,2.051,0.455,2.621,1.025l-0.512,0.762c-0.426-0.512-1.201-0.893-2.109-0.893c-0.967,0-1.568,0.482-1.568,1.113
				c0,1.552,4.381,0.527,4.381,3.281c0,1.186-0.953,2.138-2.783,2.138C196.306,474.337,195.325,473.985,194.606,473.224z"/>
			<path id="XMLID_49_" style="fill:#F9FBFC;" d="M201.477,465.344c0-0.41,0.336-0.748,0.733-0.748c0.41,0,0.746,0.338,0.746,0.748
				c0,0.41-0.336,0.732-0.746,0.732C201.813,466.076,201.477,465.754,201.477,465.344z M201.667,474.161v-7.075h1.1v7.075H201.667z"
				/>
			<path id="XMLID_46_" style="fill:#F9FBFC;" d="M204.583,475.978l0.555-0.82c0.586,0.703,1.291,0.967,2.301,0.967
				c1.172,0,2.27-0.571,2.27-2.124v-1.011c-0.512,0.718-1.375,1.26-2.373,1.26c-1.844,0-3.149-1.377-3.149-3.662
				c0-2.271,1.289-3.677,3.149-3.677c0.953,0,1.803,0.469,2.373,1.246v-1.07h1.1v6.871c0,2.343-1.641,3.075-3.369,3.075
				C206.237,477.032,205.417,476.798,204.583,475.978z M209.708,472.125v-3.09c-0.381-0.615-1.23-1.143-2.109-1.143
				c-1.42,0-2.27,1.127-2.27,2.694c0,1.554,0.85,2.695,2.27,2.695C208.477,473.282,209.327,472.74,209.708,472.125z"/>
			<path id="XMLID_44_" style="fill:#F9FBFC;" d="M217.413,474.161v-4.629c0-1.245-0.629-1.64-1.582-1.64
				c-0.863,0-1.684,0.527-2.094,1.098v5.171h-1.1v-7.075h1.1v1.025c0.498-0.586,1.465-1.201,2.52-1.201
				c1.479,0,2.256,0.748,2.256,2.285v4.966H217.413z"/>
			<path id="XMLID_41_" style="fill:#F9FBFC;" d="M219.933,470.617c0-2.051,1.465-3.707,3.486-3.707c2.139,0,3.398,1.67,3.398,3.794
				v0.278h-5.727c0.088,1.334,1.025,2.446,2.547,2.446c0.807,0,1.627-0.322,2.184-0.894l0.527,0.719
				c-0.703,0.703-1.656,1.083-2.813,1.083C221.442,474.337,219.933,472.828,219.933,470.617z M223.405,467.818
				c-1.51,0-2.258,1.275-2.314,2.358h4.643C225.718,469.122,225.015,467.818,223.405,467.818z"/>
			<path id="XMLID_38_" style="fill:#F9FBFC;" d="M233.351,474.161v-1.055c-0.527,0.718-1.393,1.23-2.389,1.23
				c-1.846,0-3.148-1.406-3.148-3.706c0-2.256,1.289-3.721,3.148-3.721c0.953,0,1.816,0.469,2.389,1.246v-3.766h1.098v9.771H233.351
				z M233.351,472.242v-3.207c-0.396-0.615-1.246-1.143-2.125-1.143c-1.42,0-2.27,1.172-2.27,2.738c0,1.568,0.85,2.725,2.27,2.725
				C232.104,473.355,232.954,472.857,233.351,472.242z"/>
			<path id="XMLID_5_" style="fill:#F9FBFC;" d="M239.692,474.161v-9.771h1.098v3.766c0.572-0.777,1.422-1.246,2.389-1.246
				c1.846,0,3.148,1.465,3.148,3.721c0,2.3-1.303,3.706-3.148,3.706c-0.996,0-1.861-0.513-2.389-1.23v1.055H239.692z
				 M242.899,473.355c1.436,0,2.285-1.156,2.285-2.725c0-1.566-0.85-2.738-2.285-2.738c-0.863,0-1.729,0.527-2.109,1.143v3.207
				C241.171,472.857,242.036,473.355,242.899,473.355z"/>
			<path id="XMLID_3_" style="fill:#F9FBFC;" d="M247.528,475.934c0.162,0.073,0.426,0.117,0.602,0.117
				c0.482,0,0.805-0.161,1.055-0.747l0.469-1.069l-2.959-7.148h1.186l2.359,5.801l2.344-5.801h1.201l-3.545,8.511
				c-0.426,1.025-1.143,1.421-2.08,1.435c-0.234,0-0.602-0.044-0.807-0.103L247.528,475.934z"/>
		</g>
	</g>
</g>
</svg>
